<?xml version="1.0" encoding="UTF-8"?>
<svg width="85px" height="104px" viewBox="0 0 85 104" version="1.1" xmlns="http://www.w3.org/2000/svg" xmlns:xlink="http://www.w3.org/1999/xlink">
    <!-- Generator: Sketch 42 (36781) - http://www.bohemiancoding.com/sketch -->
    <title>hiproxy-logo</title>
    <desc>Created with Sketch.</desc>
    <defs></defs>
    <g id="Page-1" stroke="none" stroke-width="1" fill="none" fill-rule="evenodd">
        <g id="Artboard" transform="translate(-75.000000, -47.000000)">
            <g id="hiproxy-logo" transform="translate(75.000000, 47.000000)">
                <g id="i" transform="translate(60.000000, 0.000000)">
                    <g id="Path-1" fill="#D0011B">
                        <polygon points="17.8041992 0.577148438 17.8041992 1.98828125 7.64404297 1.98828125 7.64404297 0.577148438"></polygon>
                        <path d="M4.50634766,5.27050781 C3.77034137,6.53223287 3.22111184,7.78978865 2.85864258,9.04321289 C2.49617332,10.2966371 2.31494141,11.5597267 2.31494141,12.8325195 C2.31494141,14.0997785 2.49617332,15.3614846 2.85864258,16.6176758 C3.22111184,17.873867 3.77034137,19.13834 4.50634766,20.4111328 L3.17822266,20.4111328 C2.3426065,19.0940689 1.72005413,17.8116111 1.31054688,16.5637207 C0.901039619,15.3158303 0.696289062,14.0721091 0.696289062,12.8325195 C0.696289062,11.5984639 0.901039619,10.356126 1.31054688,9.10546875 C1.72005413,7.85481146 2.3426065,6.57650393 3.17822266,5.27050781 L4.50634766,5.27050781 Z"></path>
                        <polygon points="17.8041992 20.5771484 17.8041992 21.9882812 7.64404297 21.9882812 7.64404297 20.5771484"></polygon>
                        <path d="M20.7675781,5.27050781 L22.0957031,5.27050781 C22.9313193,6.57650393 23.5538717,7.85481146 23.9633789,9.10546875 C24.3728862,10.356126 24.5776367,11.5984639 24.5776367,12.8325195 C24.5776367,14.0776429 24.3728862,15.3255146 23.9633789,16.5761719 C23.5538717,17.8268292 22.9313193,19.1051367 22.0957031,20.4111328 L20.7675781,20.4111328 C21.5035844,19.1272722 22.0528139,17.8572654 22.4152832,16.6010742 C22.7777525,15.344883 22.9589844,14.0887107 22.9589844,12.8325195 C22.9589844,11.5707945 22.7777525,10.3118552 22.4152832,9.05566406 C22.0528139,7.79947289 21.5035844,6.53776675 20.7675781,5.27050781 Z"></path>
                    </g>
                    <g id="Path-2" transform="translate(2.000000, 40.000000)" fill="#4990E2">
                        <polygon points="15.8041992 0.577148438 15.8041992 1.98828125 5.64404297 1.98828125 5.64404297 0.577148438"></polygon>
                        <polygon points="1.56835938 6.00927734 1.56835938 23.0092773 0.140625 23.0092773 0.140625 6.00927734"></polygon>
                        <polygon points="22.0380859 6.00927734 22.0380859 23.0092773 20.6103516 23.0092773 20.6103516 6.00927734"></polygon>
                        <polygon points="1.56835938 26.0092773 1.56835938 43.0092773 0.140625 43.0092773 0.140625 26.0092773"></polygon>
                        <polygon points="22.0380859 26.0092773 22.0380859 43.0092773 20.6103516 43.0092773 20.6103516 26.0092773"></polygon>
                        <polygon points="1.56835938 46.0092773 1.56835938 63.0092773 0.140625 63.0092773 0.140625 46.0092773"></polygon>
                        <polygon points="15.8041992 60.5771484 15.8041992 61.9882812 5.64404297 61.9882812 5.64404297 60.5771484"></polygon>
                        <polygon points="22.0380859 46.0092773 22.0380859 63.0092773 20.6103516 63.0092773 20.6103516 46.0092773"></polygon>
                    </g>
                </g>
                <g id="h" fill="#FFFFFF">
                    <g id="Path-3">
                        <polygon points="16.3950195 0.577148438 16.3950195 1.98828125 6.23486328 1.98828125 6.23486328 0.577148438"></polygon>
                        <polygon points="2.15917969 6.00927734 2.15917969 23.0092773 0.731445312 23.0092773 0.731445312 6.00927734"></polygon>
                        <polygon points="22.6289062 6.00927734 22.6289062 23.0092773 21.2011719 23.0092773 21.2011719 6.00927734"></polygon>
                        <polygon points="2.15917969 26.0092773 2.15917969 43.0092773 0.731445312 43.0092773 0.731445312 26.0092773"></polygon>
                        <polygon points="22.6289062 26.0092773 22.6289062 43.0092773 21.2011719 43.0092773 21.2011719 26.0092773"></polygon>
                        <polygon points="36.8647461 40.5771484 36.8647461 41.9882812 26.7045898 41.9882812 26.7045898 40.5771484"></polygon>
                        <polygon points="47.0996094 40.5771484 47.0996094 41.9882812 36.9394531 41.9882812 36.9394531 40.5771484"></polygon>
                        <polygon points="2.15917969 46.0092773 2.15917969 63.0092773 0.731445312 63.0092773 0.731445312 46.0092773"></polygon>
                        <polygon points="22.6289062 46.0673828 22.6289062 51.2387695 20.7695312 51.2387695 20.7695312 46.0673828"></polygon>
                        <polygon points="36.8647461 60.5771484 36.8647461 61.9882812 26.7045898 61.9882812 26.7045898 60.5771484"></polygon>
                        <polygon points="49.6064453 46.6069336 56.1308594 60.5771484 54.5537109 60.5771484 48.0209961 46.6069336"></polygon>
                        <polygon points="2.15917969 66.0092773 2.15917969 83.0092773 0.731445312 83.0092773 0.731445312 66.0092773"></polygon>
                        <polygon points="22.6289062 66.0092773 22.6289062 83.0092773 21.2011719 83.0092773 21.2011719 66.0092773"></polygon>
                        <polygon points="43.0986328 66.0092773 43.0986328 83.0092773 41.6708984 83.0092773 41.6708984 66.0092773"></polygon>
                        <polygon points="2.15917969 86.0092773 2.15917969 103.009277 0.731445312 103.009277 0.731445312 86.0092773"></polygon>
                        <polygon points="16.3950195 100.577148 16.3950195 101.988281 6.23486328 101.988281 6.23486328 100.577148"></polygon>
                        <polygon points="22.6289062 86.0092773 22.6289062 103.009277 21.2011719 103.009277 21.2011719 86.0092773"></polygon>
                        <polygon points="43.0986328 86.0092773 43.0986328 103.009277 41.6708984 103.009277 41.6708984 86.0092773"></polygon>
                        <polygon points="57.3344727 100.577148 57.3344727 101.988281 47.1743164 101.988281 47.1743164 100.577148"></polygon>
                    </g>
                </g>
            </g>
        </g>
    </g>
</svg>